# xmcd CD database file
#
# Track frame offsets:
#	150
#	78487
#	132837
#	199757
#
# Disc length: 3024 seconds
#
# Revision: 0
# Processed by: cddbd v1.5.2PL0 Copyright (c) Steve Scherf et al.
# Submitted via: CDex 1.70beta3
#
DISCID=2e0bce04
DTITLE=Takayanagi Masayuki - Angry Waves Vol.2
DYEAR=1984
DGENRE=Jazz
TTITLE0=Fab Wizard
TTITLE1=SLow #2
TTITLE2=Fab Spirits
TTITLE3=Fab Universalindians
EXTD=YEAR: 1984
EXTT0=
EXTT1=
EXTT2=
EXTT3=
PLAYORDER=
